<?xml version="1.0" encoding="UTF-8" standalone="no"?>
<!-- Generator: Adobe Illustrator 15.1.0, SVG Export Plug-In . SVG Version: 6.00 Build 0)  -->

<svg
   version="1.1"
   id="logo_-_color_1_"
   x="0px"
   y="0px"
   width="1000"
   height="1000"
   viewBox="0 0 1000 1000"
   enable-background="new 0 0 4722 1409"
   xml:space="preserve"
   sodipodi:docname="icon.svg"
   inkscape:version="1.2.2 (732a01da63, 2022-12-09, custom)"
   xmlns:inkscape="http://www.inkscape.org/namespaces/inkscape"
   xmlns:sodipodi="http://sodipodi.sourceforge.net/DTD/sodipodi-0.dtd"
   xmlns="http://www.w3.org/2000/svg"
   xmlns:svg="http://www.w3.org/2000/svg"><defs
   id="defs58" /><sodipodi:namedview
   id="namedview56"
   pagecolor="#ffffff"
   bordercolor="#666666"
   borderopacity="1.0"
   inkscape:showpageshadow="2"
   inkscape:pageopacity="0.0"
   inkscape:pagecheckerboard="0"
   inkscape:deskcolor="#d1d1d1"
   showgrid="false"
   inkscape:zoom="0.27742482"
   inkscape:cx="1521.1328"
   inkscape:cy="443.36336"
   inkscape:window-width="1850"
   inkscape:window-height="1053"
   inkscape:window-x="0"
   inkscape:window-y="27"
   inkscape:window-maximized="1"
   inkscape:current-layer="logo_-_color_1_" />
<g
   id="g53"
   transform="translate(-131.11945,-205.36014)">
	
	<g
   id="g51">
		<g
   id="g41">
			<path
   fill="#df283f"
   d="m 969.053,474.769 c 8.356,-4.776 8.356,-12.59 0,-17.366 L 635.331,266.683 c -8.356,-4.776 -22.031,-4.776 -30.388,0 l -333.749,190.72 c -8.357,4.775 -8.357,12.59 0,17.365 l 333.748,190.721 c 8.357,4.775 22.032,4.775 30.388,0 z"
   id="path39" />
		</g>
		<g
   id="g45">
			<path
   fill="#128669"
   d="m 650.398,726.822 c -8.357,4.775 -18.585,10.619 -22.728,12.988 -4.143,2.369 -10.923,2.369 -15.066,0 -4.143,-2.369 -14.371,-8.213 -22.729,-12.987 L 293.344,557.427 c -8.357,-4.774 -11.228,-1.878 -6.377,6.436 l 335.427,575.021 c 4.85,8.313 15.655,11.208 24.011,6.432 L 988.577,949.732 c 8.356,-4.776 11.226,-15.487 6.376,-23.801 L 830.533,644.062 c -4.85,-8.314 -15.655,-11.209 -24.013,-6.435 z"
   id="path43" />
		</g>
		<g
   id="g49">
			<path
   fill="#1d8dcd"
   d="m 271.194,943.521 c -8.356,4.775 -8.356,12.589 10e-4,17.363 l 250.375,143.037 c 8.357,4.774 11.227,1.879 6.377,-6.435 L 405.201,887.092 c -4.85,-8.313 -15.656,-11.208 -24.012,-6.433 z"
   id="path47" />
		</g>
	</g>
</g>
</svg>
